<svg id="Layer_1" data-name="Layer 1" xmlns="http://www.w3.org/2000/svg" viewBox="0 0 426.67 426.67"><defs><style>.cls-1{fill:#2196f3;}</style></defs><title>Help Icon 2_Header</title><path class="cls-1" d="M256,42.67C138.18,42.67,42.67,138.16,42.67,256S138.18,469.33,256,469.33,469.33,373.85,469.33,256,373.82,42.67,256,42.67Zm-31.6,260-.39-10.4c-1.2-20.38,5.59-41.16,23.58-62.75,12.79-15.18,23.18-28,23.18-41.56,0-14-9.19-23.18-29.18-24-13.19,0-29.18,4.79-39.57,12l-13.59-43.57c14.39-8.39,38.37-16.38,66.75-16.38,52.76,0,76.74,29.17,76.74,62.35,0,30.37-18.79,50.36-34,67.14-14.79,16.39-20.79,32-20.39,50v7.2ZM214,357.86c0-21.18,14.79-36.37,35.57-36.37,21.59,0,35.58,15.19,36,36.37,0,20.78-14.39,36.37-36,36.37C228.4,394.23,214,378.64,214,357.86Z" transform="translate(-42.67 -42.67)"/><polygon class="cls-1" points="120.74 405.58 10.94 419.53 29.34 307.26 120.74 405.58"/></svg>